<svg width="64.000000" height="64.000000" viewBox="0 0 64 64" fill="none" xmlns="http://www.w3.org/2000/svg" xmlns:xlink="http://www.w3.org/1999/xlink">
	<desc>
			Created with Pixso.
	</desc>
	<defs/>
	<path id="path" d="M28.8 44.8C28.8 46.56 30.23 48 32 48C33.76 48 35.2 46.56 35.2 44.8L28.8 44.8ZM19.89 39.65C21.61 39.27 22.7 37.56 22.32 35.84C21.94 34.11 20.23 33.02 18.5 33.4L19.89 39.65ZM45.49 33.4C43.76 33.02 42.05 34.11 41.67 35.84C41.29 37.56 42.38 39.27 44.1 39.65L45.49 33.4ZM41.6 16C41.6 21.3 37.3 25.6 32 25.6L32 32C40.83 32 48 24.83 48 16L41.6 16ZM32 25.6C26.69 25.6 22.4 21.3 22.4 16L16 16C16 24.83 23.16 32 32 32L32 25.6ZM22.4 16C22.4 10.69 26.69 6.39 32 6.39L32 0C23.16 0 16 7.16 16 16L22.4 16ZM32 6.39C37.3 6.39 41.6 10.69 41.6 16L48 16C48 7.16 40.83 0 32 0L32 6.39ZM28.8 28.8L28.8 44.8L35.2 44.8L35.2 28.8L28.8 28.8ZM57.6 48C57.6 48.72 57.28 49.65 56.21 50.77C55.13 51.91 53.42 53.07 51.06 54.12C46.35 56.22 39.61 57.6 32 57.6L32 64C40.29 64 47.95 62.51 53.66 59.97C56.51 58.7 59.01 57.11 60.85 55.18C62.7 53.24 64 50.8 64 48L57.6 48ZM32 57.6C24.38 57.6 17.64 56.22 12.93 54.12C10.57 53.07 8.86 51.91 7.78 50.77C6.71 49.65 6.4 48.72 6.4 48L0 48C0 50.8 1.29 53.24 3.14 55.18C4.98 57.11 7.48 58.7 10.33 59.97C16.04 62.51 23.7 64 32 64L32 57.6ZM6.4 48C6.4 46.98 7.06 45.48 9.48 43.78C11.84 42.12 15.4 40.64 19.89 39.65L18.5 33.4C13.5 34.51 9.07 36.25 5.8 38.54C2.59 40.8 0 43.99 0 48L6.4 48ZM44.1 39.65C48.59 40.64 52.15 42.12 54.51 43.78C56.93 45.48 57.6 46.98 57.6 48L64 48C64 43.99 61.46 40.84 58.19 38.54C54.92 36.25 50.49 34.51 45.49 33.4L44.1 39.65Z" fill="#FBBB13" fill-opacity="1.000000" fill-rule="nonzero"/>
</svg>
