<svg width="63.000000" height="60.000000" viewBox="0 0 63 60" fill="none" xmlns="http://www.w3.org/2000/svg" xmlns:xlink="http://www.w3.org/1999/xlink">
	<desc>
			Created with Pixso.
	</desc>
	<defs/>
	<path id="path" d="M40.53 38.3L38.91 36.67L40.53 38.3ZM41.93 36.91L43.56 38.55L41.93 36.91ZM49.37 35.93L48.27 37.96L49.37 35.93ZM55.25 39.13L54.15 41.16L55.25 39.13ZM56.9 49.16L58.53 50.8L56.9 49.16ZM52.53 53.51L50.91 51.88L52.53 53.51ZM48.46 55.58L48.67 57.88L48.46 55.58ZM18.12 42.52L19.75 40.88L18.12 42.52ZM3.31 14.85L1.01 14.98L3.31 14.85ZM23.23 19.32L24.86 20.96L23.23 19.32ZM23.71 11.14L25.56 9.76L23.71 11.14ZM19.83 5.95L17.99 7.34L19.83 5.95ZM10.26 5.08L11.89 6.72L10.26 5.08ZM5.43 9.89L3.8 8.25L5.43 9.89ZM28.11 32.57L29.74 30.93L28.11 32.57ZM42.16 39.94L43.56 38.55L40.31 35.27L38.91 36.67L42.16 39.94ZM48.27 37.96L54.15 41.16L56.35 37.1L50.47 33.9L48.27 37.96ZM55.28 47.52L50.91 51.88L54.16 55.15L58.53 50.8L55.28 47.52ZM48.24 53.28C43.78 53.69 32.24 53.32 19.75 40.88L16.49 44.16C30.13 57.73 43.11 58.4 48.67 57.88L48.24 53.28ZM19.75 40.88C7.83 29.02 5.86 19.04 5.62 14.72L1.01 14.98C1.32 20.43 3.76 31.48 16.49 44.16L19.75 40.88ZM23.98 21.84L24.86 20.96L21.61 17.68L20.72 18.56L23.98 21.84ZM25.56 9.76L21.68 4.57L17.99 7.34L21.87 12.53L25.56 9.76ZM8.63 3.44L3.8 8.25L7.06 11.53L11.89 6.72L8.63 3.44ZM22.35 20.2C20.72 18.56 20.72 18.56 20.72 18.56C20.65 18.64 20.4 18.94 20.31 19.06C20.15 19.31 19.97 19.63 19.81 20.04C19.5 20.88 19.33 21.98 19.54 23.34C19.95 26.01 21.79 29.53 26.48 34.21L29.74 30.93C25.34 26.55 24.3 23.89 24.1 22.63C24.01 22.04 23.95 21.91 23.98 21.84C23.97 21.84 23.98 21.84 22.35 20.2ZM26.48 34.21C31.18 38.89 34.71 40.71 37.38 41.12C38.74 41.32 39.84 41.16 40.68 40.85C41.08 40.69 41.41 40.51 41.66 40.35C41.78 40.27 42.08 40.01 42.16 39.94C42.16 39.94 42.16 39.94 40.53 38.3C38.91 36.67 38.9 36.67 38.91 36.67C38.83 36.69 38.69 36.64 38.08 36.55C36.81 36.35 34.13 35.3 29.74 30.93L26.48 34.21ZM21.68 4.57C18.55 0.37 12.38 -0.29 8.63 3.44L11.89 6.72C13.52 5.09 16.43 5.25 17.99 7.34L21.68 4.57ZM5.62 14.72C5.55 13.65 6.04 12.54 7.06 11.53L3.8 8.25C2.15 9.89 0.85 12.22 1.01 14.98L5.62 14.72ZM50.91 51.88C50.06 52.72 49.15 53.19 48.24 53.28L48.67 57.88C50.93 57.67 52.78 56.52 54.16 55.15L50.91 51.88ZM24.86 20.96C27.89 17.94 28.11 13.17 25.56 9.76L21.87 12.53C23.11 14.19 22.92 16.37 21.61 17.68L24.86 20.96ZM54.15 41.16C56.66 42.53 57.05 45.75 55.28 47.52L58.53 50.8C62.65 46.69 61.38 39.84 56.35 37.1L54.15 41.16ZM43.56 38.55C44.74 37.37 46.64 37.08 48.27 37.96L50.47 33.9C47.14 32.09 43 32.59 40.31 35.27L43.56 38.55Z" fill="#FBBB13" fill-opacity="1.000000" fill-rule="nonzero"/>
	<path id="path" d="M42.16 39.94C42.16 39.94 42.16 39.94 40.53 38.3L38.91 36.67M41.93 36.91L43.56 38.55M49.37 35.93L48.27 37.96M55.25 39.13L54.15 41.16M56.9 49.16L58.53 50.8M52.53 53.51L50.91 51.88M48.46 55.58L48.67 57.88M18.12 42.52L19.75 40.88M3.31 14.85L1.01 14.98M23.23 19.32L24.86 20.96M23.71 11.14L25.56 9.76M19.83 5.95L17.99 7.34M10.26 5.08L11.89 6.72M5.43 9.89L3.8 8.25M28.11 32.57L29.74 30.93M40.53 38.3C38.91 36.67 38.9 36.67 38.91 36.67L40.31 35.27C43 32.59 47.14 32.09 50.47 33.9L56.35 37.1C61.38 39.84 62.65 46.69 58.53 50.8L54.16 55.15C52.78 56.52 50.93 57.67 48.67 57.88C43.11 58.4 30.13 57.73 16.49 44.16C3.76 31.48 1.32 20.43 1.01 14.98C0.85 12.22 2.15 9.89 3.8 8.25L8.63 3.44C12.38 -0.29 18.55 0.37 21.68 4.57L25.56 9.76C28.11 13.17 27.89 17.94 24.86 20.96L23.98 21.84C23.97 21.84 23.98 21.84 22.35 20.2C20.72 18.56 20.72 18.56 20.72 18.56C20.65 18.64 20.4 18.94 20.31 19.06C20.15 19.31 19.97 19.63 19.81 20.04C19.5 20.88 19.33 21.98 19.54 23.34C19.95 26.01 21.79 29.53 26.48 34.21C31.18 38.89 34.71 40.71 37.38 41.12C38.74 41.32 39.84 41.16 40.68 40.85C41.08 40.69 41.41 40.51 41.66 40.35C41.78 40.27 42.08 40.01 42.16 39.94L43.56 38.55C44.74 37.37 46.64 37.08 48.27 37.96L54.15 41.16C56.66 42.53 57.05 45.75 55.28 47.52L50.91 51.88C50.06 52.72 49.15 53.19 48.24 53.28C43.78 53.69 32.24 53.32 19.75 40.88C7.83 29.02 5.86 19.04 5.62 14.72C5.55 13.65 6.04 12.54 7.06 11.53L11.89 6.72C13.52 5.09 16.43 5.25 17.99 7.34L21.87 12.53C23.11 14.19 22.92 16.37 21.61 17.68L20.72 18.56M43.56 38.55L40.31 35.27M38.91 36.67L42.16 39.94M54.15 41.16L56.35 37.1M50.47 33.9L48.27 37.96M50.91 51.88L54.16 55.15M58.53 50.8L55.28 47.52M19.75 40.88L16.49 44.16M48.67 57.88L48.24 53.28M5.62 14.72L1.01 14.98M24.86 20.96L21.61 17.68M20.72 18.56L23.98 21.84M21.68 4.57L17.99 7.34M21.87 12.53L25.56 9.76M3.8 8.25L7.06 11.53M11.89 6.72L8.63 3.44M26.48 34.21L29.74 30.93M38.91 36.67C38.83 36.69 38.69 36.64 38.08 36.55C36.81 36.35 34.13 35.3 29.74 30.93C25.34 26.55 24.3 23.89 24.1 22.63C24.01 22.04 23.95 21.91 23.98 21.84" stroke="#FBBB13" stroke-opacity="1.000000" stroke-width="2.000000"/>
</svg>
