<svg width="60.000000" height="49.000000" viewBox="0 0 60 49" fill="none" xmlns="http://www.w3.org/2000/svg" xmlns:xlink="http://www.w3.org/1999/xlink">
	<desc>
			Created with Pixso.
	</desc>
	<defs/>
	<path id="path" d="M12.42 45L46.57 45C49.87 45 51.52 45 52.78 44.34C53.89 43.77 54.79 42.85 55.35 41.72C56 40.44 56 38.76 56 35.39L56 12.6C56 9.23 56 7.55 55.35 6.27C54.79 5.14 53.89 4.22 52.78 3.65C51.52 3 49.87 3 46.57 3L12.42 3C9.12 3 7.47 3 6.21 3.65C5.1 4.22 4.2 5.14 3.64 6.27C3 7.55 3 9.23 3 12.6L3 35.39C3 38.76 3 40.44 3.64 41.72C4.2 42.85 5.1 43.77 6.21 44.34C7.47 45 9.12 45 12.42 45ZM54.26 8.98L54.27 8.95C55.98 7.98 58.08 8.57 59.04 10.27C60.01 11.98 59.42 14.08 57.72 15.04L57.69 15.03L54.26 8.98ZM1.3 15.03L1.27 15.04C-0.43 14.08 -1.02 11.98 -0.05 10.27C0.91 8.57 3.01 7.98 4.72 8.95L4.73 8.98L1.3 15.03Z" fill="#000000" fill-opacity="0" fill-rule="nonzero"/>
	<path id="path" d="M56 12L45.51 17.93C39.67 21.24 36.74 22.89 33.65 23.54C30.55 24.19 28.08 24.12 25.34 23.54C22.25 22.89 19.33 21.24 13.48 17.93L3 12M46.57 45C49.87 45 51.52 45 52.78 44.34C53.89 43.77 54.79 42.85 55.35 41.72C56 40.44 56 38.76 56 35.39L56 12.6C56 9.23 56 7.55 55.35 6.27C54.79 5.14 53.89 4.22 52.78 3.65C51.52 3 49.87 3 46.57 3L12.42 3C9.12 3 7.47 3 6.21 3.65C5.1 4.22 4.2 5.14 3.64 6.27C3 7.55 3 9.23 3 12.6L3 35.39C3 38.76 3 40.44 3.64 41.72C4.2 42.85 5.1 43.77 6.21 44.34C7.47 45 9.12 45 12.42 45L46.57 45Z" stroke="#FBBB13" stroke-opacity="1.000000" stroke-width="7.000000" stroke-linejoin="round" stroke-linecap="round"/>
</svg>
