<svg width="70.000000" height="62.000000" viewBox="0 0 70 62" fill="none" xmlns="http://www.w3.org/2000/svg" xmlns:xlink="http://www.w3.org/1999/xlink">
	<desc>
			Created with Pixso.
	</desc>
	<defs/>
	<path id="path" d="M34.5 44C40.29 44 45 39.29 45 33.5C45 27.7 40.29 23 34.5 23C28.7 23 24 27.7 24 33.5C24 39.29 28.7 44 34.5 44Z" fill="#000000" fill-opacity="0" fill-rule="nonzero"/>
	<path id="path" d="M45 33.5C45 27.7 40.29 23 34.5 23C28.7 23 24 27.7 24 33.5C24 39.29 28.7 44 34.5 44C40.29 44 45 39.29 45 33.5Z" stroke="#FBBB13" stroke-opacity="1.000000" stroke-width="5.000000" stroke-linejoin="round"/>
	<path id="path" d="M2 47.6L2 20.52C2 16.53 2 14.53 2.78 13.01C3.47 11.67 4.58 10.58 5.94 9.9C7.48 9.12 9.51 9.12 13.55 9.12L17.36 9.12C17.8 9.12 18.02 9.12 18.23 9.1C19.3 8.98 20.26 8.39 20.84 7.5C20.96 7.33 21.06 7.14 21.25 6.75C21.65 5.96 21.85 5.57 22.08 5.23C23.25 3.45 25.17 2.28 27.3 2.04C27.71 2 28.16 2 29.04 2L39.95 2C40.83 2 41.28 2 41.69 2.04C43.82 2.28 45.74 3.45 46.92 5.23C47.14 5.57 47.34 5.96 47.74 6.75C47.93 7.14 48.03 7.33 48.15 7.5C48.73 8.39 49.69 8.98 50.76 9.1C50.97 9.12 51.19 9.12 51.63 9.12L55.44 9.12C59.48 9.12 61.51 9.12 63.05 9.9C64.41 10.58 65.52 11.67 66.21 13.01C67 14.53 67 16.53 67 20.52L67 47.6C67 51.59 67 53.58 66.21 55.1C65.52 56.45 64.41 57.54 63.05 58.22C61.51 59 59.48 59 55.44 59L13.55 59C9.51 59 7.48 59 5.94 58.22C4.58 57.54 3.47 56.45 2.78 55.1C2 53.58 2 51.59 2 47.6Z" fill="#000000" fill-opacity="0" fill-rule="nonzero"/>
	<path id="path" d="M2 20.52C2 16.53 2 14.53 2.78 13.01C3.47 11.67 4.58 10.58 5.94 9.9C7.48 9.12 9.51 9.12 13.55 9.12L17.36 9.12C17.8 9.12 18.02 9.12 18.23 9.1C19.3 8.98 20.26 8.39 20.84 7.5C20.96 7.33 21.06 7.14 21.25 6.75C21.65 5.96 21.85 5.57 22.08 5.23C23.25 3.45 25.17 2.28 27.3 2.04C27.71 2 28.16 2 29.04 2L39.95 2C40.83 2 41.28 2 41.69 2.04C43.82 2.28 45.74 3.45 46.92 5.23C47.14 5.57 47.34 5.96 47.74 6.75C47.93 7.14 48.03 7.33 48.15 7.5C48.73 8.39 49.69 8.98 50.76 9.1C50.97 9.12 51.19 9.12 51.63 9.12L55.44 9.12C59.48 9.12 61.51 9.12 63.05 9.9C64.41 10.58 65.52 11.67 66.21 13.01C67 14.53 67 16.53 67 20.52L67 47.6C67 51.59 67 53.58 66.21 55.1C65.52 56.45 64.41 57.54 63.05 58.22C61.51 59 59.48 59 55.44 59L13.55 59C9.51 59 7.48 59 5.94 58.22C4.58 57.54 3.47 56.45 2.78 55.1C2 53.58 2 51.59 2 47.6L2 20.52Z" stroke="#FBBB13" stroke-opacity="1.000000" stroke-width="5.000000" stroke-linejoin="round"/>
</svg>
