<svg width="75.000000" height="57.000000" viewBox="0 0 75 57" fill="none" xmlns="http://www.w3.org/2000/svg" xmlns:xlink="http://www.w3.org/1999/xlink">
	<desc>
			Created with Pixso.
	</desc>
	<defs/>
	<path id="path" d="M70.31 57C70.31 57 75 57 75 52.25C75 47.5 70.31 33.25 51.56 33.25C32.81 33.25 28.12 47.5 28.12 52.25C28.12 57 32.81 57 32.81 57L70.31 57ZM32.91 52.25C32.92 50.99 33.59 47.33 36.37 44.06C38.96 40.98 43.5 38 51.56 38C59.61 38 64.15 40.99 66.75 44.06C69.52 47.33 70.3 50.98 70.31 52.23L32.91 52.25ZM51.56 23.75C54.15 23.75 56.36 22.82 58.19 20.96C60.02 19.11 60.93 16.87 60.93 14.25C60.93 11.62 60.02 9.38 58.19 7.53C56.36 5.67 54.15 4.75 51.56 4.75C48.97 4.75 46.76 5.67 44.93 7.53C43.1 9.38 42.18 11.62 42.18 14.25C42.18 16.87 43.1 19.11 44.93 20.96C46.76 22.82 48.97 23.75 51.56 23.75ZM65.62 14.25C65.62 18.18 64.25 21.54 61.5 24.32C58.76 27.1 55.44 28.5 51.56 28.5C47.67 28.5 44.36 27.1 41.61 24.32C38.87 21.54 37.5 18.18 37.5 14.25C37.5 10.31 38.87 6.95 41.61 4.17C44.36 1.39 47.67 0 51.56 0C55.44 0 58.76 1.39 61.5 4.17C64.25 6.95 65.62 10.31 65.62 14.25ZM32.51 34.58C30.63 33.98 28.71 33.58 26.74 33.4C25.64 33.3 24.54 33.24 23.43 33.25C4.68 33.25 0 47.5 0 52.25C0 55.41 1.56 57 4.68 57L24.45 57C23.74 55.49 23.4 53.91 23.43 52.25C23.43 47.45 25.2 42.55 28.54 38.45C29.68 37.05 31.01 35.75 32.51 34.58ZM23.06 38C20.22 42.31 18.79 47.06 18.75 52.25L4.68 52.25C4.68 51.01 5.45 47.35 8.25 44.06C10.8 41.04 15.24 38.09 23.06 38ZM7.03 16.62C7.03 12.68 8.4 9.33 11.15 6.54C13.89 3.76 17.21 2.37 21.09 2.37C24.97 2.37 28.29 3.76 31.03 6.54C33.78 9.33 35.15 12.68 35.15 16.62C35.15 20.56 33.78 23.91 31.03 26.7C28.29 29.48 24.97 30.87 21.09 30.87C17.21 30.87 13.89 29.48 11.15 26.7C8.4 23.91 7.03 20.56 7.03 16.62ZM21.09 7.12C18.5 7.12 16.29 8.05 14.46 9.9C12.63 11.76 11.71 14 11.71 16.62C11.71 19.24 12.63 21.48 14.46 23.34C16.29 25.19 18.5 26.12 21.09 26.12C23.68 26.12 25.89 25.19 27.72 23.34C29.55 21.48 30.46 19.24 30.46 16.62C30.46 14 29.55 11.76 27.72 9.9C25.89 8.05 23.68 7.12 21.09 7.12Z" fill="#FBBB13" fill-opacity="1.000000" fill-rule="nonzero"/>
</svg>
