<svg width="60.000000" height="57.000000" viewBox="0 0 60 57" fill="none" xmlns="http://www.w3.org/2000/svg" xmlns:xlink="http://www.w3.org/1999/xlink">
	<desc>
			Created with Pixso.
	</desc>
	<defs/>
	<path id="path" d="M38.5 11.73C38.5 17.1 33.93 21.46 29.37 26.33C24.81 21.46 20.25 17.1 20.25 11.73C20.25 6.35 24.33 2 29.37 2C34.41 2 38.5 6.35 38.5 11.73ZM9.17 5.85L9.2 5.84C10.45 6.47 10.94 7.94 10.31 9.2C9.69 10.45 8.21 10.94 6.96 10.31L6.95 10.29L9.17 5.85ZM17.77 35.47L17.75 35.45C17.75 34.05 18.85 32.95 20.25 32.95C21.65 32.95 22.75 34.05 22.75 35.45L22.73 35.47L17.77 35.47ZM49.57 13.35L49.54 13.36C48.29 12.73 47.8 11.25 48.43 10C49.05 8.75 50.53 8.26 51.78 8.88L51.79 8.91L49.57 13.35ZM36.02 35.47L36 35.45C36 34.05 37.09 32.95 38.5 32.95C39.9 32.95 41 34.05 41 35.45L40.98 35.47L36.02 35.47Z" fill="#000000" fill-opacity="0" fill-rule="nonzero"/>
	<path id="path" d="M50.66 11.12L56.75 14.16L56.75 53.7L38.5 44.58L20.25 53.7L2 44.58L2 5.04L8.08 8.08M20.25 53.7L20.25 35.45M38.5 44.58L38.5 35.45M29.37 26.33C24.81 21.46 20.25 17.1 20.25 11.73C20.25 6.35 24.33 2 29.37 2C34.41 2 38.5 6.35 38.5 11.73C38.5 17.1 33.93 21.46 29.37 26.33Z" stroke="#FBBB13" stroke-opacity="1.000000" stroke-width="5.000000" stroke-linejoin="round"/>
</svg>
