<?xml version="1.0" encoding="utf-8"?>
<!-- Generator: Adobe Illustrator 24.3.0, SVG Export Plug-In . SVG Version: 6.00 Build 0)  -->
<svg version="1.1" id="Слой_1" xmlns="http://www.w3.org/2000/svg" xmlns:xlink="http://www.w3.org/1999/xlink" x="0px" y="0px"
	 viewBox="0 0 402.7 189.3" style="enable-background:new 0 0 402.7 189.3;" xml:space="preserve">
<style type="text/css">
	.st0{fill:#FBBB13;}
	.st1{fill:#EE721B;}
	.st2{fill:#FBBB13;stroke:#FBBB13;stroke-miterlimit:10;}
</style>
<path class="st0" d="M132.3,95.5c-0.1,1-0.3,3.8-0.5,8.5l-0.2,3.5l-0.2,3.5c-0.2,3.4-0.4,5.9-0.5,7.5c-0.1,1-0.3,2.7-0.5,5.2
	l-0.2,4.1c0,0.1-0.1,0.1-0.1,0.1h-7c-0.1,0-0.1,0-0.1-0.1c0.1-0.9,0.2-2.1,0.2-3.7c0.1-1.6,0.1-2.8,0.1-3.5c0.1-0.8,0.2-2,0.2-3.6
	c-2.5,0.2-4.1,0.4-5.1,0.4l-6.1,0.4c-0.1,3.3-0.1,5.2-0.1,5.8c0.1,0.4,0.1,1.1,0,2.2v2.1c0,0.1,0,0.1-0.1,0.1h-7.3
	c-0.1,0-0.1-0.1-0.1-0.1c0.1-1.7,0.2-3.4,0.1-4.7c-0.1-3.8-0.1-6.2,0-7.1c0.1-4.1,0.1-6.3,0.1-6.7c-0.1-2.6-0.1-4.5,0-5.8
	c0.1-3.1,0.2-5.3,0.2-6.7v-0.1c0.6-0.3,1.7-0.5,3.2-0.8c1.7-0.3,3.2-0.5,4.6-0.5c0,0,0,0,0.1,0v0.1v0.1c0.1,1.5-0.1,4-0.5,7.7
	c-0.2,1.9-0.4,3.9-0.4,6.1v2.3c2.7-0.1,4.7-0.2,6.1-0.3c2.5-0.3,4.4-0.4,5.9-0.5l0.3-3.2c0.5-5.9,0.8-9.5,0.9-10.7
	c0-0.1,0-0.1,0.1-0.1c2-0.9,4.3-1.3,7-1.3C132.2,95.4,132.3,95.4,132.3,95.5z"/>
<path class="st0" d="M161.6,127.9h-7.2c-0.1,0-0.1-0.1-0.1-0.1l-0.4-2.2l-0.4,0.4c-1.7,1.8-4.5,2.7-6.9,2.6
	c-0.9-0.1-1.9-0.1-2.9-0.3c-1-0.2-1.9-0.5-2.5-1c-0.9-0.7-1.5-1.4-1.8-2.1c-0.4-0.9-0.6-2-0.7-3.4c0-2,0.7-3.9,1.9-5.5
	c1.3-1.6,2.9-2.6,4.9-2.9c1.9-0.3,3.7-0.3,5.4-0.1c1.2,0.1,2.2,0.4,3.1,0.7c0.1-0.2,0.1-0.4,0.1-0.5c0.2-1.3,0.2-2.3,0-3.1
	c-0.3-1.1-0.9-1.9-1.7-2.3c-0.8-0.4-1.7-0.5-2.6-0.2c-1.4,0.5-2.6,1.8-3.6,4c0,0,0,0-0.1,0c-0.9,0.1-1.9-0.1-2.9-0.4
	c-0.9-0.2-1.6-0.5-2.1-0.9c-0.1,0-0.1-0.1-0.1-0.1v-0.1c0.4-1.7,1.4-3.5,2.9-5.2c1-1.1,2.2-1.9,3.6-2.3c1-0.3,2.5-0.4,4.4-0.5
	c2-0.1,3.6,0.2,4.7,0.8c2.4,1.1,3.7,3.7,3.7,6.5c0.1,1,0,2.5-0.3,4.4c-0.3,2-0.4,3.8-0.3,5.6c0.2,2.9,0.8,5.6,1.7,8.2
	C161.8,127.8,161.7,127.9,161.6,127.9z M153.4,118.3c-0.3-0.2-0.9-0.2-1.9-0.3c-1.2,0-2.2,0.1-3,0.2c-1.7,0.4-3.2,1.7-3.5,3.4
	c-0.2,1.6,1.2,2.2,2.9,2c0.7-0.1,1.2-0.2,1.7-0.5c0.5-0.2,1-0.5,1.7-1.2C152.7,120.6,153.4,119.4,153.4,118.3z"/>
<path class="st0" d="M191.5,107.3c1.3,2.2,1.9,4.6,2,7.1c0,0.7-0.1,1.3-0.1,2c-0.7,5.2-4.1,9.9-8.9,11.5c-2.9,1-5.7,0.8-8.5-0.3
	c0,0.5-0.1,3.1-0.3,7.9c0,0.5-0.1,1.7-0.2,3.4c-0.1,1.7-0.1,3.1-0.1,4c0,0.1,0,0.1-0.1,0.1c-2.1,1.1-4.8,1.2-6.8,0
	c-0.1-0.1-0.1-0.1-0.1-0.1c0.3-3.8,0.4-6.1,0.4-7c0.1-2.1,0.1-3.1,0.1-3.1c0.1-0.7,0.2-2.4,0.2-3.1c0.1-0.8,0.1-1.9,0.1-3.4
	c0.1-1.4,0.1-2.4,0.1-2.9c0.1-1.3,0.1-3.2,0-6c0-1.9-0.1-3.3-0.1-4.1l-0.5-9c0-0.3,0.1-0.5,0.1-0.6l0.5-0.3c0.4-0.2,1-0.4,1.6-0.5
	c1.4-0.3,2.9-0.5,4.7-0.5c0.1,0,0.1,0,0.1,0.1c0,0.6,0,1.3,0.1,2.2c0.8-0.5,1.7-1,2.6-1.3c2.9-1.1,5.5-1.3,8-0.5
	C188.6,103.6,190.3,105.1,191.5,107.3z M183.1,108.4c-2.3-0.1-4.6,1.9-5.9,4.2c-1.1,2.2-1.2,5.2-0.2,7.6c0.4,1,1.1,1.6,2,1.8
	c1.1,0.2,2.2,0.2,3.2-0.1c1-0.3,1.8-1,2.6-2.2c0.8-1.3,1.3-2.6,1.6-4.1C186.9,113.1,186.5,108.6,183.1,108.4z"/>
<path class="st0" d="M269.5,127.7c0.1,0.1,0.1,0.1,0,0.1c0,0.1,0,0.1-0.1,0.1h-7.1c-0.4,0-0.7-0.1-0.9-0.4c-0.4-0.4-0.8-1-1.3-2
	c-0.7-1.4-1.6-2.8-2.6-4.1l-2.3-3.3l-1.4,1.6c-0.1,1.4-0.1,2.5-0.1,3c0,0.4,0,1.3,0.1,2.6c0.1,1.3,0.1,2.1,0.1,2.5
	c-0.1,0.1-0.1,0.1-0.1,0.1h-6.9c-0.1,0-0.1-0.1-0.1-0.1c0.2-2.6,0.3-4.9,0.4-6.9c0-0.4,0-0.8-0.1-1.2l-1.3-1.6
	c-0.5,0.7-1.3,1.8-2.3,3.3c-1,1.4-1.9,2.8-2.6,4.1c-0.5,1-1,1.7-1.3,2c-0.2,0.2-0.5,0.4-0.9,0.4h-7.1c-0.1,0-0.1,0-0.1-0.1
	c0-0.1,0-0.1,0.1-0.1c0.9-1.1,2.2-3.1,3.9-5.7c0.5-0.8,0.9-1.3,1.2-1.7c0.2-0.2,0.4-0.4,0.7-0.8l0.8-0.9l1.3-1.9l1.1-1.7
	c0.7-1,1-1.4,1-1.5l-1.1-1.1l-4.1-4.3l-2.4-2.3c-1-1-1.6-1.6-1.8-1.7v-0.1c0-0.1,0-0.1,0.1-0.1c1.6-0.7,3.4-1.1,5.2-1.3
	c0.7-0.1,1.1-0.1,1.1-0.1l0.2,0.2l0.2,0.3l0.2,0.2l1.7,1.6l3.9,3.8l1.5,1.5c0.3,0.3,0.6,0.6,0.8,0.8l-0.1-2.5
	c-0.1-2.3-0.1-3.8-0.2-4.4l0.1-0.1v-0.1c0.6-0.3,1.6-0.6,2.9-0.9c1.4-0.3,2.8-0.5,4-0.5c0.1,0,0.1,0,0.1,0.1
	c-0.1,0.5-0.1,1.3-0.1,2.5c0.1,1.1,0.1,1.9,0.1,2.4c-0.1,0.9-0.1,2-0.1,3.5c0.2-0.2,0.5-0.5,0.9-0.8l1.6-1.5l3.9-3.8l1.7-1.6
	l0.2-0.2l0.2-0.3l0.2-0.2c0.1-0.1,0.5,0,1.1,0.1c1.8,0.2,3.5,0.6,5.2,1.3c0.1,0,0.1,0,0.1,0.1v0.1c-0.2,0.1-0.8,0.7-1.9,1.7
	l-2.3,2.3l-4.1,4.3l-1.1,1.1c0,0.1,0.4,0.5,1,1.5l1,1.7c0.5,0.8,1,1.5,1.3,1.9l0.7,0.9c0.3,0.4,0.6,0.7,0.8,0.8l1.2,1.7
	C267.4,124.6,268.6,126.6,269.5,127.7z"/>
<path class="st0" d="M298.5,127.7c0.1,0.1,0.1,0.1,0,0.1c0,0.1,0,0.1-0.1,0.1h-7.1c-0.4,0-0.7-0.1-0.9-0.4c-0.4-0.4-0.8-1-1.3-2
	c-0.7-1.4-1.6-2.8-2.6-4.1c-1-1.5-1.7-2.6-2.3-3.3l-1.3,1.6h-0.1c-0.1,1.4-0.1,2.5-0.1,3c0,0.4,0.1,1.3,0.1,2.6
	c0.1,1.3,0.1,2.1,0,2.5c-0.1,0.1-0.1,0.1-0.1,0.1h-6.9c-0.1,0-0.1-0.1-0.1-0.1c0.3-3.7,0.4-6.7,0.4-9c-0.1-3.1-0.1-5.5-0.1-7.4
	c0-0.9-0.1-1.9-0.1-3.1c-0.1-2.3-0.1-3.8-0.2-4.4l0.1-0.1v-0.1c0.6-0.3,1.6-0.6,2.9-0.9c1.4-0.3,2.8-0.5,4-0.5c0.1,0,0.1,0,0.1,0.1
	c-0.1,0.5-0.1,1.3,0,2.5c0.1,1.1,0.1,1.9,0.1,2.4c-0.1,0.9-0.1,2-0.1,3.5l1-0.8l1.5-1.5l3.9-3.8l1.7-1.6l0.2-0.2l0.2-0.3l0.2-0.2
	c0.1-0.1,0.5,0,1.1,0.1c1.8,0.2,3.5,0.6,5.2,1.3c0.1,0,0.1,0,0.1,0.1v0.1c-0.2,0.1-0.8,0.7-1.9,1.7l-2.3,2.3l-4.1,4.3l-1.1,1.1
	c0,0.1,0.4,0.5,1,1.5l1,1.7c0.5,0.8,1,1.5,1.3,1.9l0.7,0.9l0.8,0.8l1.2,1.7C296.3,124.6,297.6,126.6,298.5,127.7z"/>
<path class="st0" d="M327.4,127.9h-7.2c-0.1,0-0.1-0.1-0.1-0.1l-0.4-2.2l-0.4,0.4c-1.7,1.8-4.5,2.7-6.9,2.6
	c-0.9-0.1-1.9-0.1-2.9-0.3c-1-0.2-1.9-0.5-2.5-1c-0.9-0.7-1.5-1.4-1.8-2.1c-0.4-0.9-0.6-2-0.7-3.4c0-2,0.7-3.9,1.9-5.5
	c1.3-1.6,2.9-2.6,4.9-2.9c1.9-0.3,3.7-0.3,5.4-0.1c1.2,0.1,2.2,0.4,3.1,0.7c0.1-0.2,0.1-0.4,0.1-0.5c0.2-1.3,0.2-2.3,0-3.1
	c-0.3-1.1-0.9-1.9-1.7-2.3c-0.8-0.4-1.7-0.5-2.6-0.2c-1.4,0.5-2.6,1.8-3.6,4c0,0,0,0-0.1,0c-0.9,0.1-1.9-0.1-2.9-0.4
	c-0.9-0.2-1.6-0.5-2.1-0.9c-0.1,0-0.1-0.1-0.1-0.1v-0.1c0.4-1.7,1.4-3.5,2.9-5.2c1-1.1,2.2-1.9,3.6-2.3c1-0.3,2.5-0.4,4.4-0.5
	c2-0.1,3.6,0.2,4.7,0.8c2.4,1.1,3.7,3.7,3.7,6.5c0.1,1,0,2.5-0.3,4.4c-0.3,2-0.4,3.8-0.3,5.6c0.2,2.9,0.8,5.6,1.7,8.2
	C327.5,127.8,327.5,127.9,327.4,127.9z M319.2,118.3c-0.3-0.2-0.9-0.2-1.9-0.3c-1.2,0-2.2,0.1-3,0.2c-1.7,0.4-3.2,1.7-3.5,3.4
	c-0.2,1.6,1.2,2.2,2.9,2c0.7-0.1,1.2-0.2,1.7-0.5c0.5-0.2,1-0.5,1.7-1.2C318.5,120.6,319.1,119.4,319.2,118.3z"/>
<path d="M221.5,127.9"/>
<path class="st1" d="M224.9,121.6c0,12.1,0.4,24.2,0.9,36.3c0.2,4-0.7,12.3,3.2,14.8c1.2,0.8,2.6,1.1,4,1.4
	c8.9,2.2,17.8,4.7,26.5,7.7c-0.3,1.6-2.4,2-4,2c-19.7-0.1-39.3,0.9-59,0.9c-3.6,0.1-7.3,0.1-10.7-1c0.5-2,2.9-2.7,4.8-3.2
	c8.5-2,16.9-4.5,25-7.7c0.8-0.3,1.7-0.7,2.2-1.4c0.5-0.8,0.6-1.8,0.5-2.7c-0.1-7.5,0.9-37.8-0.7-44.2c-1.2,1.8-2.5,3.4-4.6,4.1
	c-2,0.7-4.7,0.6-6.7-0.3c-2.2-1-3.7-2.9-4.7-5.6c-0.9-2.5-1.4-5.5-1.3-9.1c0-0.9,0.1-3.3,0.1-4.3v-2.6v-2.3c0-0.1,0-0.1,0.1-0.1
	c2.2-0.9,4.4-1.4,6.6-1.4c0.1,0,0.1,0,0.1,0.1c0,0.8,0.1,2.6,0.1,3.1c0,0.1,0,1.2-0.1,3.4c-0.1,0.8-0.1,2.6,0,5.6
	c0,1.1,0,1.9,0.1,2.5c0.2,1.2,0.8,3.4,2.2,4.1c1.1,0.6,2.4,0.7,3.8,0.1c1.4-0.5,2.4-1.5,3.2-3.1c0.7-1.3,1.1-3,1.4-5.1
	c0.3-2.2,0.4-5.2,0.4-9.2c0-0.1,0-0.1,0.1-0.1c0.8-0.7,1.9-1.1,2.9-1.3c0.4-0.1,1.5-0.1,1.7-0.1h0.8c1,0,0.9,0,0.9,0.1v2.6
	c0,0.9,0,2.3-0.1,4.3v4.4v2.3c0.1,1.1,0.1,2,0.1,2.6C224.9,119.1,224.9,121.6,224.9,121.6z"/>
<circle class="st2" cx="342.1" cy="93.9" r="8.5"/>
<g>
	<path class="st1" d="M352.7,69c-0.5,2.3-1.2,4.6-1.9,6.8l-1.1,3.4c-0.2,0.6-0.4,1.1-0.6,1.7c-0.1,0.3-0.2,0.5-0.4,0.9
		c0,0-0.1,0.1-0.1,0.2c0,0.1-0.1,0.1-0.1,0.2l-0.1,0.1c0,0,0,0.1-0.4,0.3c-0.3,0.2-0.7,0.2-1,0.1c-0.3,0-0.6-0.2-0.9-0.6
		c-0.3-0.3-0.3-1-0.3-0.8l0-0.1c0-0.4,0-0.3,0.1-0.4l0-0.2l0.1-0.5c1.3-4.6,3.2-9.2,5.9-13.3c1.3-2,2.9-3.9,4.6-5.7
		c1.7-1.7,3.6-3.4,5.6-4.8c2-1.4,4.2-2.5,6.4-3.4c2.3-0.8,4.6-1.4,7-1.6c-2.2,1-4.2,2.1-6.1,3.3c-1.9,1.2-3.7,2.7-5.4,4.1
		c-1.7,1.5-3.2,3.1-4.7,4.8c-0.7,0.9-1.4,1.7-2.1,2.6c-0.7,0.9-1.3,1.8-1.9,2.7c-2.5,3.8-4.4,7.8-6.2,12l-0.1,0.3c0,0,0,0,0,0l0-0.2
		l0-0.1c0,0.1,0-0.5-0.3-0.8c-0.3-0.4-0.7-0.5-0.9-0.6c-0.3-0.1-0.7,0-1,0.1c-0.4,0.2-0.4,0.3-0.4,0.3l0,0.1c0,0-0.1,0.1-0.1,0.1
		c0,0,0,0,0,0c0.1-0.1,0.3-0.4,0.4-0.6l0.9-1.5l1.7-3.1C350.2,73.1,351.3,71,352.7,69z"/>
</g>
<g>
	<path class="st1" d="M363.8,74.8c-1.1,2.1-2.3,4.2-3.5,6.2l-1.9,3c-0.3,0.5-0.7,1-1,1.5c-0.2,0.3-0.3,0.5-0.6,0.8
		c0,0-0.1,0.1-0.2,0.2c0,0-0.1,0.1-0.2,0.1l-0.1,0.1c0,0,0,0.1-0.4,0.2c-0.3,0.1-0.8,0-1-0.1c-0.2-0.1-0.6-0.4-0.7-0.8
		c-0.2-0.4-0.1-1-0.1-0.9l0-0.1c0.1-0.3,0.1-0.3,0.2-0.4l0.1-0.2l0.2-0.5c2.3-4.2,5.3-8.2,8.9-11.5c1.8-1.7,3.8-3.1,5.8-4.5
		c2.1-1.3,4.3-2.4,6.6-3.3c2.3-0.8,4.7-1.5,7.1-1.8c2.4-0.3,4.8-0.3,7.2,0.1c-2.3,0.5-4.6,1-6.7,1.8c-2.2,0.7-4.2,1.7-6.2,2.7
		c-2,1.1-3.9,2.3-5.7,3.5c-0.9,0.7-1.8,1.3-2.7,2.1c-0.9,0.7-1.7,1.4-2.5,2.2c-3.3,3-6.2,6.5-8.9,10.2l-0.2,0.3c0,0,0,0,0,0l0.1-0.2
		l0-0.1c0,0.1,0.1-0.5-0.1-0.8c-0.2-0.4-0.5-0.7-0.7-0.8c-0.3-0.1-0.7-0.2-1-0.1c-0.4,0.1-0.4,0.2-0.4,0.2l-0.1,0
		c0,0-0.1,0.1-0.1,0.1c0,0,0,0,0,0c0.1-0.1,0.4-0.3,0.5-0.5l1.2-1.3l2.4-2.6C360.4,78.1,362,76.4,363.8,74.8z"/>
</g>
<g>
	<path class="st1" d="M367.9,88.9c-2,1.3-4.1,2.4-6.1,3.6l-3.2,1.6c-0.5,0.3-1.1,0.5-1.6,0.8c-0.3,0.1-0.5,0.2-0.9,0.4
		c0,0-0.1,0-0.2,0.1c-0.1,0-0.1,0-0.2,0l-0.1,0c0,0,0,0-0.5-0.1c-0.3-0.1-0.7-0.4-0.8-0.6c-0.1-0.2-0.3-0.6-0.2-1.1
		c0-0.4,0.5-0.9,0.4-0.8l0.1-0.1c0.3-0.2,0.2-0.2,0.3-0.3l0.1-0.1l0.4-0.3c4.1-2.4,8.7-4.4,13.4-5.4c2.4-0.5,4.8-0.8,7.3-0.9
		c2.4,0,4.9,0.1,7.3,0.5c2.4,0.4,4.8,1.1,7,2c2.2,1,4.3,2.2,6.1,3.7c-2.3-0.8-4.5-1.4-6.7-1.9c-2.2-0.5-4.5-0.7-6.8-0.8
		c-2.3-0.1-4.5,0-6.7,0.2c-1.1,0.2-2.2,0.2-3.3,0.4c-1.1,0.1-2.2,0.4-3.3,0.6c-4.4,0.9-8.6,2.5-12.9,4.3l-0.3,0.1c0,0,0,0,0,0
		l0.2-0.1l0.1-0.1c-0.1,0.1,0.3-0.4,0.4-0.8c0.1-0.4-0.1-0.8-0.2-1.1c-0.2-0.3-0.5-0.5-0.8-0.6c-0.4-0.1-0.5-0.1-0.4-0.1l-0.1,0
		c0,0-0.1,0-0.1,0c0,0-0.1,0,0,0c0.2,0,0.5-0.1,0.7-0.2l1.7-0.5l3.4-1C363.3,90.1,365.6,89.4,367.9,88.9z"/>
</g>
<g>
	<path class="st0" d="M341.9,86c-5.5-2.6-10.8-5.5-15.9-8.7c-5.1-3.3-9.9-7-14.4-11.1c-2.2-2.1-4.4-4.2-6.4-6.5
		c-2-2.3-3.9-4.7-5.8-6.9c-3.9-4.5-8-8.8-12.4-12.8l-0.2-0.2c0.1,0.2,0,0-0.1-0.1l-0.3-0.2l-0.5-0.5l-1.1-0.9l-2.2-1.8
		c-1.5-1.2-2.9-2.4-4.4-3.6c-1.5-1.2-3-2.3-4.6-3.4c-1.5-1.1-3.1-2.2-4.6-3.1c-3.2-1.8-6.6-3.4-10.1-4.8c-3.5-1.4-7.1-2.6-10.7-3.7
		c-14.5-4.2-29.7-6.1-44.7-5.6c-7.5,0.3-15,1.1-22.4,2.6c-7.4,1.5-14.6,3.5-21.7,6.1c-7.1,2.6-14.1,5.4-20.8,8.8
		c-6.7,3.4-13.1,7.2-18.9,11.7c-5.7,4.6-10.7,9.8-13.9,15.9c-1.6,3-2.7,6.2-3.1,9.4c-0.5,3.2-0.2,6.5,0.6,9.3
		c0.1,0.2,0.1,0.3,0.2,0.5l0.1,0.4l0.2,0.5c0.2,0.7,0.4,1.6,0.5,2.5c0.1,0.9,0,1.8-0.2,2.6c-0.2,0.9-0.4,1.7-0.8,2.5
		c-0.8,1.6-2,2.9-3.3,3.9c-1.3,0.9-2.6,1.5-3.8,2c-2.5,0.9-4.8,1.1-7,1.2c-2.2,0.1-4.3,0-6.4-0.2c-4.1-0.3-8.1-1.1-11.9-2
		c-1.9-0.4-3.8-0.9-5.7-1.4c-1.9-0.5-3.8-1.1-5.6-1.6c-3.6-1-7.3-1.9-10.9-2.7c-3.6-0.8-7.3-1.4-10.9-1.8c-3.6-0.3-7.3-0.4-10.7,0
		c-3.4,0.4-6.7,1.4-9.2,3.2c-1.3,0.9-2.4,2.1-3.6,3.5l-0.8,1c-0.2,0.3-0.5,0.6-0.7,1c-0.4,0.7-0.8,1.3-1,2.1c-1.1,2.9-1,6.2,0.5,8.8
		c0.8,1.3,1.9,2.5,3.2,3.3c1.3,0.9,2.7,1.5,4.2,1.5c3.1,0.1,6.5-2.1,9-4.8l0.8,0.5c-0.9,1.8-2.1,3.4-3.7,4.8
		c-1.5,1.4-3.5,2.6-5.8,2.9c-2.3,0.4-4.7,0-6.8-1.1c-2-1.1-3.8-2.6-5.1-4.5c-2.7-3.8-3.2-8.9-1.8-13.3C7,90.1,7.5,89.1,8,88.1
		c0.3-0.5,0.6-1,0.9-1.5l0.9-1.3c1.2-1.6,2.6-3.4,4.4-4.8C16,79.1,18,78,20,77.2c2-0.8,4.1-1.4,6.2-1.7c4.2-0.7,8.3-0.8,12.3-0.6
		c8,0.5,15.8,1.9,23.4,3.8c1.9,0.5,3.7,0.9,5.5,1.3c1.8,0.4,3.7,0.8,5.5,1.2c3.6,0.7,7.3,1.2,10.8,1.5c1.8,0.1,3.5,0.1,5.1,0
		c1.6-0.1,3.2-0.4,4.3-0.8c0.6-0.2,1-0.4,1.3-0.7c0.3-0.2,0.4-0.4,0.4-0.5c0-0.1,0.1-0.1,0.1-0.2c0-0.1,0-0.2,0-0.2
		c0-0.1,0-0.2-0.1-0.4l-0.2-0.4c-0.1-0.3-0.2-0.6-0.3-0.9c-2.8-9-0.7-18.4,3.5-25.8c2.1-3.8,4.7-7.1,7.6-10.1c2.9-3,6-5.6,9.2-8
		c13.1-9.5,27.7-15.6,42.4-20.5c7.4-2.5,15.1-4.5,22.8-5.8c7.7-1.3,15.6-2,23.4-2.1c15.7-0.1,31.3,2.2,46.2,6.9
		c3.7,1.2,7.4,2.5,11,4.1c3.6,1.6,7.1,3.3,10.5,5.4c3.4,2.2,6.4,4.6,9.4,7.1c1.5,1.2,3,2.5,4.4,3.8l2.2,1.9l1.1,1l0.5,0.5l0.3,0.3
		c0.1,0.1,0.1,0.1,0.4,0.4l-0.2-0.2c4.4,4.2,8.5,8.7,12.2,13.5c1.9,2.4,3.7,4.8,5.6,7c1.9,2.3,3.9,4.5,6,6.5
		c4.3,4.1,8.9,7.9,13.8,11.4c4.9,3.4,10.1,6.5,15.4,9.2L341.9,86z"/>
</g>
<g>
	<path class="st0" d="M143.6,50c3.2-1.8,6.5-3.6,10.1-4.6c3.6-1.1,7.3-1.7,11.1-1.7c3.8,0,7.6,0.5,11.2,1.7
		c3.6,1.2,7.1,3.1,10.1,5.6c3,2.5,5.6,5.9,6.9,9.9c1.2,4,1.1,8.3,0,12.1c-0.5,1.9-1.3,3.7-2.2,5.5c-1,1.7-1.9,3.4-3.2,4.9
		c-2.4,3-5.2,5.6-8.5,7.5l-0.3-0.4c2.2-2.9,4.2-5.9,5.8-9c1.6-3.1,2.9-6.3,3.5-9.6c0.7-3.3,0.8-6.5,0.1-9.6l-0.3-1.1
		c-0.1-0.4-0.3-0.7-0.4-1.1l-0.4-1.1c-0.2-0.4-0.4-0.7-0.6-1l-0.6-1l-0.8-1l-0.8-1l-0.9-0.9c-4.9-4.7-11.8-7.3-18.8-7.8
		c-7.1-0.7-14.3,1.1-20.8,4.2L143.6,50z"/>
</g>
<ellipse transform="matrix(0.2995 -0.9541 0.9541 0.2995 131.8059 339.0578)" class="st1" cx="296.8" cy="79.8" rx="5.6" ry="9.7"/>
<g>
	<path class="st0" d="M273.3,60.3c-2.4-3.8-5.5-7.3-9-10c-3.6-2.7-7.7-4.7-12-5.5c-2.1-0.5-4.3-0.6-6.5-0.5
		c-2.2,0.2-4.2,0.7-6.2,1.5c-3.8,1.7-6.8,5.1-8.5,9c-1.7,3.8-2.2,8.3-0.9,12c0.6,1.9,1.6,3.7,2.9,5.3c1.3,1.6,2.8,3.1,4.5,4.3
		c3.4,2.6,7.4,4.2,11.7,5.1c4.3,0.9,8.8,1,13.3,0.5l0.1,0.4c-4.3,1.6-9.1,2.3-13.8,1.9c-4.7-0.4-9.5-1.9-13.6-4.6
		c-0.5-0.4-1-0.7-1.5-1.1l-1.4-1.2c-0.5-0.4-0.9-0.9-1.3-1.3c-0.4-0.4-0.9-0.9-1.2-1.4c-1.6-1.9-2.7-4.3-3.4-6.7
		c-0.7-2.5-0.8-5.1-0.4-7.5c0.3-2.5,1.1-4.8,2.2-7c2.2-4.3,5.8-8.1,10.4-10c2.3-0.9,4.7-1.3,7.1-1.4c2.4,0,4.8,0.2,7.1,0.8
		c0.6,0.1,1.1,0.3,1.7,0.5c0.6,0.2,1.1,0.4,1.7,0.6l1.6,0.7l0.8,0.4l0.8,0.4l1.5,0.9c0.5,0.3,1,0.6,1.5,1c1,0.6,1.9,1.4,2.8,2.1
		c3.6,3,6.5,6.7,8.6,10.7L273.3,60.3z"/>
</g>
<g>
	<path class="st0" d="M243.5,51.3c1.7-1.3,3.9-1.9,6.2-1.9c2.2,0,4.5,0.6,6.5,1.8c1.9,1.2,3.5,3,4.5,5c1,2,1.4,4.2,1.2,6.3
		c-1-1.9-2-3.6-3.2-5.1c-1.2-1.5-2.6-2.7-4.1-3.7c-1.5-0.9-3.3-1.6-5.1-2C247.6,51.3,245.7,51.2,243.5,51.3z"/>
</g>
<g>
	<path class="st0" d="M307.6,60.5c0.6-4.6,1.1-9.1,1.1-13.6c-0.1-2.2-0.1-4.5-0.6-6.6c-0.4-2.1-0.9-4.3-1.9-6.1
		c-0.4-0.9-1-1.7-1.7-2.4c-0.7-0.6-1.4-1-2.3-1.2c-1.8-0.4-4-0.1-6,0.6c-2,0.7-3.9,1.8-5.5,3.3c-1.6,1.5-2.7,3.5-3.5,5.6
		c0.1-2.3,1-4.6,2.4-6.6c1.5-2,3.4-3.5,5.7-4.5c1.1-0.5,2.3-0.9,3.5-1.1c1.2-0.2,2.5-0.3,3.9-0.1c0.7,0.1,1.4,0.3,2,0.7
		c0.7,0.3,1.2,0.8,1.7,1.2c1,1,1.8,2,2.3,3.2c2.2,4.6,2.5,9.5,2.1,14.2C310.5,51.7,309.4,56.3,307.6,60.5z"/>
</g>
</svg>
