<svg width="41.995361" height="40.993652" viewBox="0 0 41.9954 40.9937" fill="none" xmlns="http://www.w3.org/2000/svg" xmlns:xlink="http://www.w3.org/1999/xlink">
	<desc>
			Created with Pixso.
	</desc>
	<defs/>
	<path id="path" d="M11.39 0.09C10.71 0.4 10.5 0.85 10.5 2.04L10.5 2.9L7.25 2.9C4.62 2.9 3.88 2.92 3.43 3.03C1.82 3.45 0.58 4.67 0.16 6.26C-0.06 7.04 -0.06 36.84 0.16 37.63C0.58 39.21 1.82 40.44 3.43 40.85C3.92 40.97 6.03 40.99 20.99 40.99C35.96 40.99 38.06 40.97 38.55 40.85C40.16 40.44 41.41 39.21 41.83 37.63C42.04 36.84 42.04 7.04 41.83 6.26C41.41 4.67 40.16 3.45 38.55 3.03C38.1 2.92 37.36 2.9 34.75 2.9L31.5 2.9L31.46 1.9C31.43 0.82 31.35 0.61 30.79 0.2C30.42 -0.06 29.54 -0.06 29.18 0.2C28.62 0.61 28.53 0.82 28.5 1.9L28.47 2.9L20.99 2.9L13.52 2.9L13.48 1.9C13.45 0.82 13.37 0.61 12.83 0.21C12.51 -0.02 11.77 -0.08 11.39 0.09ZM38.28 6.06C38.42 6.16 38.63 6.37 38.73 6.5C38.92 6.74 38.93 6.9 38.95 9.22L38.98 11.69L20.99 11.69L3.01 11.69L3.01 9.36C3.01 6.94 3.05 6.69 3.42 6.29C3.87 5.81 2.9 5.84 21.11 5.85L38.03 5.87L38.28 6.06ZM38.95 25.87C38.93 37.08 38.93 37.13 38.73 37.38C38.63 37.52 38.42 37.72 38.28 37.82L38.03 38.01L20.99 38.01L3.96 38.01L3.71 37.82C3.57 37.72 3.36 37.52 3.26 37.38C3.06 37.13 3.06 37.08 3.03 25.87L3.01 14.62L20.99 14.62L38.97 14.62L38.95 25.87Z" fill="#FFFFFF" fill-opacity="1.000000" fill-rule="nonzero"/>
	<path id="path" d="M10.5 2.04L10.5 2.9L7.25 2.9C4.62 2.9 3.88 2.92 3.43 3.03C1.82 3.45 0.58 4.67 0.16 6.26C-0.06 7.04 -0.06 36.84 0.16 37.63C0.58 39.21 1.82 40.44 3.43 40.85C3.92 40.97 6.03 40.99 20.99 40.99C35.96 40.99 38.06 40.97 38.55 40.85C40.16 40.44 41.41 39.21 41.83 37.63C42.04 36.84 42.04 7.04 41.83 6.26C41.41 4.67 40.16 3.45 38.55 3.03C38.1 2.92 37.36 2.9 34.75 2.9L31.5 2.9L31.46 1.9C31.43 0.82 31.35 0.61 30.79 0.2C30.42 -0.06 29.54 -0.06 29.18 0.2C28.62 0.61 28.53 0.82 28.5 1.9L28.47 2.9L20.99 2.9L13.52 2.9L13.48 1.9C13.45 0.82 13.37 0.61 12.83 0.21C12.51 -0.02 11.77 -0.08 11.39 0.09C10.71 0.4 10.5 0.85 10.5 2.04ZM38.73 6.5C38.92 6.74 38.93 6.9 38.95 9.22L38.98 11.69L20.99 11.69L3.01 11.69L3.01 9.36C3.01 6.94 3.05 6.69 3.42 6.29C3.87 5.81 2.9 5.84 21.11 5.85L38.03 5.87L38.28 6.06C38.42 6.16 38.63 6.37 38.73 6.5ZM38.73 37.38C38.63 37.52 38.42 37.72 38.28 37.82L38.03 38.01L20.99 38.01L3.96 38.01L3.71 37.82C3.57 37.72 3.36 37.52 3.26 37.38C3.06 37.13 3.06 37.08 3.03 25.87L3.01 14.62L20.99 14.62L38.97 14.62L38.95 25.87C38.93 37.08 38.93 37.13 38.73 37.38Z" stroke="#000000" stroke-opacity="0" stroke-width="0.133333"/>
	<path id="path" d="M27.88 19.12C27.77 19.18 25.53 21.04 22.88 23.25L18.07 27.28L16.19 25.45C14.77 24.07 14.2 23.58 13.94 23.5C12.9 23.18 11.89 24.06 12.05 25.14C12.11 25.54 12.21 25.65 14.65 28.05C16.43 29.8 17.29 30.58 17.51 30.65C17.97 30.8 18.51 30.7 18.91 30.4C20.03 29.57 29.73 21.34 29.84 21.12C30.2 20.44 29.92 19.53 29.23 19.19C28.87 18.99 28.17 18.96 27.88 19.12Z" fill="#FFFFFF" fill-opacity="1.000000" fill-rule="nonzero"/>
	<path id="path" d="M22.88 23.25L18.07 27.28L16.19 25.45C14.77 24.07 14.2 23.58 13.94 23.5C12.9 23.18 11.89 24.06 12.05 25.14C12.11 25.54 12.21 25.65 14.65 28.05C16.43 29.8 17.29 30.58 17.51 30.65C17.97 30.8 18.51 30.7 18.91 30.4C20.03 29.57 29.73 21.34 29.84 21.12C30.2 20.44 29.92 19.53 29.23 19.19C28.87 18.99 28.17 18.96 27.88 19.12C27.77 19.18 25.53 21.04 22.88 23.25Z" stroke="#000000" stroke-opacity="0" stroke-width="0.133333"/>
</svg>
