<svg width="40.004395" height="39.991455" viewBox="0 0 40.0044 39.9915" fill="none" xmlns="http://www.w3.org/2000/svg" xmlns:xlink="http://www.w3.org/1999/xlink">
	<desc>
			Created with Pixso.
	</desc>
	<defs/>
	<path id="path" d="M19.75 0C19.37 0.02 18.84 0.05 18.53 0.08C15.26 0.38 12.16 1.47 9.41 3.3C7.28 4.72 5.44 6.54 4.01 8.66C3.2 9.86 2.52 11.16 2 12.51C0.75 15.73 0.39 19.29 0.98 22.74C1.36 25.01 2.16 27.22 3.31 29.19C3.39 29.34 3.48 29.48 3.49 29.51C3.52 29.55 3.51 29.6 3.35 30.06C3.19 30.52 2.82 31.62 1.01 36.95C0.63 38.08 0.24 39.22 0.15 39.49C0.06 39.76 -0.01 39.98 0 39.99C0 39.99 2.45 39.22 5.43 38.27L10.85 36.55L11.07 36.67C11.42 36.86 12.18 37.22 12.63 37.41C15.06 38.44 17.68 38.97 20.35 38.97C25.74 38.97 30.83 36.81 34.56 32.94C37.39 30.01 39.21 26.3 39.8 22.29C40.05 20.53 40.07 18.76 39.84 16.98C39.37 13.33 37.86 9.9 35.48 7.05C35.06 6.55 34.77 6.24 34.22 5.69C33.25 4.73 32.36 4 31.22 3.25C28.56 1.49 25.52 0.41 22.3 0.09C21.62 0.02 20.3 -0.02 19.75 0ZM20.92 3.27C21.48 3.29 21.97 3.33 22.44 3.39C26.82 3.95 30.77 6.25 33.45 9.79C33.73 10.16 34.24 10.91 34.47 11.3C35.69 13.38 36.43 15.65 36.64 18C36.73 18.98 36.73 20.1 36.63 21.07C36.32 24.28 35.03 27.34 32.95 29.82C30.37 32.9 26.8 34.91 22.84 35.52C21.99 35.65 21.31 35.7 20.35 35.7C19.58 35.7 19.22 35.68 18.56 35.61C16.12 35.35 13.81 34.55 11.68 33.24L11.35 33.03L8.22 34.02C6.5 34.57 5.09 35.01 5.08 35.01C5.07 35 5.26 34.46 6.53 30.7L7.11 29L7.04 28.9C5.46 26.71 4.47 24.18 4.13 21.54C4.03 20.79 4.01 20.5 4.01 19.47C4.01 18.45 4.03 18.21 4.13 17.43C4.91 11.3 9.21 6.1 15.14 4.11C16.6 3.62 18.15 3.34 19.72 3.27C20.3 3.25 20.37 3.25 20.92 3.27Z" fill="#FFFFFF" fill-opacity="1.000000" fill-rule="nonzero"/>
	<path id="path" d="M18.53 0.08C15.26 0.38 12.16 1.47 9.41 3.3C7.28 4.72 5.44 6.54 4.01 8.66C3.2 9.86 2.52 11.16 2 12.51C0.75 15.73 0.39 19.29 0.98 22.74C1.36 25.01 2.16 27.22 3.31 29.19C3.39 29.34 3.48 29.48 3.49 29.51C3.52 29.55 3.51 29.6 3.35 30.06C3.19 30.52 2.82 31.62 1.01 36.95C0.63 38.08 0.24 39.22 0.15 39.49C0.06 39.76 -0.01 39.98 0 39.99C0 39.99 2.45 39.22 5.43 38.27L10.85 36.55L11.07 36.67C11.42 36.86 12.18 37.22 12.63 37.41C15.06 38.44 17.68 38.97 20.35 38.97C25.74 38.97 30.83 36.81 34.56 32.94C37.39 30.01 39.21 26.3 39.8 22.29C40.05 20.53 40.07 18.76 39.84 16.98C39.37 13.33 37.86 9.9 35.48 7.05C35.06 6.55 34.77 6.24 34.22 5.69C33.25 4.73 32.36 4 31.22 3.25C28.56 1.49 25.52 0.41 22.3 0.09C21.62 0.02 20.3 -0.02 19.75 0C19.37 0.02 18.84 0.05 18.53 0.08ZM22.44 3.39C26.82 3.95 30.77 6.25 33.45 9.79C33.73 10.16 34.24 10.91 34.47 11.3C35.69 13.38 36.43 15.65 36.64 18C36.73 18.98 36.73 20.1 36.63 21.07C36.32 24.28 35.03 27.34 32.95 29.82C30.37 32.9 26.8 34.91 22.84 35.52C21.99 35.65 21.31 35.7 20.35 35.7C19.58 35.7 19.22 35.68 18.56 35.61C16.12 35.35 13.81 34.55 11.68 33.24L11.35 33.03L8.22 34.02C6.5 34.57 5.09 35.01 5.08 35.01C5.07 35 5.26 34.46 6.53 30.7L7.11 29L7.04 28.9C5.46 26.71 4.47 24.18 4.13 21.54C4.03 20.79 4.01 20.5 4.01 19.47C4.01 18.45 4.03 18.21 4.13 17.43C4.91 11.3 9.21 6.1 15.14 4.11C16.6 3.62 18.15 3.34 19.72 3.27C20.3 3.25 20.37 3.25 20.92 3.27C21.48 3.29 21.97 3.33 22.44 3.39Z" stroke="#000000" stroke-opacity="0" stroke-width="0.000000"/>
	<path id="path" d="M13.41 9.99C13.2 10.03 12.97 10.13 12.78 10.26C12.58 10.39 12.06 10.89 11.8 11.2C11.14 12.01 10.76 12.86 10.6 13.94C10.53 14.33 10.53 15.2 10.59 15.57C10.66 16.09 10.81 16.65 10.98 17.13C11.27 17.94 11.73 18.84 12.22 19.57C12.31 19.7 12.5 20 12.64 20.22C14.29 22.81 16.36 25.02 18.5 26.45C19.36 27.03 20.04 27.39 21.19 27.87C23.03 28.66 24.35 29.1 25.15 29.22C25.41 29.26 25.83 29.26 26.04 29.22C26.19 29.19 26.35 29.17 26.82 29.1C27.64 28.98 28.84 28.36 29.53 27.69C29.92 27.31 30.08 27.06 30.25 26.53C30.47 25.87 30.6 25.14 30.55 24.75C30.53 24.56 30.5 24.5 30.39 24.4C30.27 24.29 30.22 24.26 29.14 23.68C26.44 22.24 25.98 22.02 25.64 22.02C25.4 22.02 25.26 22.12 24.98 22.48C24.75 22.77 24.31 23.27 23.8 23.84C23.37 24.3 23.26 24.41 23.13 24.47C23.03 24.53 22.8 24.54 22.66 24.5C22.5 24.45 21.35 23.89 20.96 23.67C18.84 22.46 17.2 20.78 15.86 18.46C15.65 18.08 15.6 17.97 15.6 17.78C15.6 17.57 15.65 17.49 16.03 17.11C16.39 16.74 16.78 16.31 16.93 16.12C17.04 15.97 17.3 15.52 17.35 15.38C17.37 15.32 17.38 15.23 17.38 15.12C17.38 14.93 17.38 14.93 17.13 14.28C17.05 14.06 16.72 13.19 16.4 12.33C16.03 11.34 15.78 10.69 15.72 10.57C15.59 10.32 15.46 10.18 15.29 10.1C15.17 10.04 15.15 10.03 14.86 10.02C14.7 10.02 14.43 10 14.27 9.99C13.92 9.95 13.58 9.95 13.41 9.99Z" fill="#FFFFFF" fill-opacity="1.000000" fill-rule="nonzero"/>
	<path id="path" d="M12.78 10.26C12.58 10.39 12.06 10.89 11.8 11.2C11.14 12.01 10.76 12.86 10.6 13.94C10.53 14.33 10.53 15.2 10.59 15.57C10.66 16.09 10.81 16.65 10.98 17.13C11.27 17.94 11.73 18.84 12.22 19.57C12.31 19.7 12.5 20 12.64 20.22C14.29 22.81 16.36 25.02 18.5 26.45C19.36 27.03 20.04 27.39 21.19 27.87C23.03 28.66 24.35 29.1 25.15 29.22C25.41 29.26 25.83 29.26 26.04 29.22C26.19 29.19 26.35 29.17 26.82 29.1C27.64 28.98 28.84 28.36 29.53 27.69C29.92 27.31 30.08 27.06 30.25 26.53C30.47 25.87 30.6 25.14 30.55 24.75C30.53 24.56 30.5 24.5 30.39 24.4C30.27 24.29 30.22 24.26 29.14 23.68C26.44 22.24 25.98 22.02 25.64 22.02C25.4 22.02 25.26 22.12 24.98 22.48C24.75 22.77 24.31 23.27 23.8 23.84C23.37 24.3 23.26 24.41 23.13 24.47C23.03 24.53 22.8 24.54 22.66 24.5C22.5 24.45 21.35 23.89 20.96 23.67C18.84 22.46 17.2 20.78 15.86 18.46C15.65 18.08 15.6 17.97 15.6 17.78C15.6 17.57 15.65 17.49 16.03 17.11C16.39 16.74 16.78 16.31 16.93 16.12C17.04 15.97 17.3 15.52 17.35 15.38C17.37 15.32 17.38 15.23 17.38 15.12C17.38 14.93 17.38 14.93 17.13 14.28C17.05 14.06 16.72 13.19 16.4 12.33C16.03 11.34 15.78 10.69 15.72 10.57C15.59 10.32 15.46 10.18 15.29 10.1C15.17 10.04 15.15 10.03 14.86 10.02C14.7 10.02 14.43 10 14.27 9.99C13.92 9.95 13.58 9.95 13.41 9.99C13.2 10.03 12.97 10.13 12.78 10.26Z" stroke="#000000" stroke-opacity="0" stroke-width="0.000000"/>
</svg>
