<?xml version="1.0" standalone="no"?>
<!DOCTYPE svg PUBLIC "-//W3C//DTD SVG 20010904//EN"
 "http://www.w3.org/TR/2001/REC-SVG-20010904/DTD/svg10.dtd">
<svg version="1.0" xmlns="http://www.w3.org/2000/svg"
 width="1985.000000pt" height="2000.000000pt" viewBox="0 0 1985.000000 2000.000000"
 preserveAspectRatio="xMidYMid meet">

<g transform="translate(0.000000,2000.000000) scale(0.100000,-0.100000)"
fill="#000000" stroke="none">
<path d="M9805 19994 c-188 -8 -452 -25 -605 -40 -1619 -148 -3158 -696 -4518
-1606 -1059 -710 -1970 -1622 -2679 -2683 -399 -598 -736 -1248 -995 -1920
-620 -1609 -797 -3389 -508 -5112 191 -1135 586 -2238 1156 -3223 42 -74 84
-146 91 -160 13 -23 7 -45 -70 -275 -79 -232 -263 -779 -1160 -3445 -190 -564
-382 -1134 -427 -1268 -46 -134 -80 -245 -77 -248 2 -3 1215 382 2694 856
l2689 860 105 -57 c175 -95 552 -276 774 -371 1207 -516 2507 -782 3830 -782
2670 0 5192 1079 7044 3014 1401 1464 2306 3320 2595 5321 128 882 134 1765
20 2655 -233 1824 -979 3538 -2158 4960 -210 253 -352 408 -625 681 -481 480
-924 843 -1486 1218 -1323 882 -2829 1420 -4425 1580 -335 34 -990 57 -1265
45z m580 -1634 c279 -11 523 -31 755 -61 2171 -279 4131 -1426 5460 -3194 139
-185 389 -561 503 -756 605 -1039 970 -2174 1076 -3349 44 -488 43 -1048 -5
-1535 -155 -1601 -795 -3132 -1825 -4372 -1280 -1539 -3048 -2544 -5009 -2847
-424 -66 -760 -90 -1235 -90 -384 0 -559 8 -890 45 -1207 131 -2354 530 -3407
1186 l-167 104 -1551 -497 c-853 -273 -1553 -494 -1555 -492 -4 3 87 274 719
2153 l286 849 -36 51 c-780 1094 -1274 2355 -1443 3675 -48 378 -56 521 -56
1035 0 513 7 632 56 1020 388 3065 2518 5663 5459 6657 726 246 1493 386 2270
417 289 12 323 12 595 1z"/>
<path d="M6663 15004 c-102 -22 -220 -73 -312 -134 -101 -68 -357 -318 -485
-474 -330 -402 -515 -825 -598 -1366 -30 -197 -32 -630 -5 -815 39 -258 110
-542 196 -782 145 -405 372 -854 614 -1218 44 -66 139 -212 210 -325 815
-1292 1843 -2395 2902 -3112 427 -289 767 -471 1333 -712 915 -391 1569 -614
1963 -671 133 -19 339 -19 444 0 75 14 152 26 387 60 405 59 999 371 1342 704
192 188 271 315 359 581 109 328 170 691 147 887 -11 96 -24 127 -79 176 -60
54 -82 67 -621 357 -1338 721 -1565 830 -1733 830 -120 0 -191 -49 -329 -228
-111 -143 -330 -397 -586 -678 -212 -233 -268 -287 -332 -319 -50 -26 -163
-31 -233 -11 -76 22 -646 303 -839 414 -1054 606 -1865 1441 -2529 2603 -107
187 -129 244 -129 337 0 106 26 149 210 337 180 185 375 401 447 497 54 71
183 298 209 370 11 27 17 75 17 128 0 95 0 96 -125 420 -42 107 -205 546 -363
975 -181 492 -306 816 -337 877 -66 125 -130 198 -212 238 -60 30 -70 32 -212
36 -82 2 -214 11 -293 19 -173 18 -344 18 -428 -1z"/>
</g>
</svg>
