<svg width="35.003906" height="34.992676" viewBox="0 0 35.0039 34.9927" fill="none" xmlns="http://www.w3.org/2000/svg" xmlns:xlink="http://www.w3.org/1999/xlink">
	<desc>
			Created with Pixso.
	</desc>
	<defs/>
	<path id="path" d="M17.28 0C16.95 0.01 16.48 0.04 16.21 0.07C13.35 0.33 10.64 1.29 8.24 2.88C6.37 4.13 4.76 5.72 3.51 7.58C2.8 8.63 2.21 9.77 1.75 10.94C0.66 13.76 0.34 16.88 0.85 19.89C1.19 21.88 1.89 23.81 2.9 25.54C2.97 25.67 3.04 25.79 3.06 25.82C3.08 25.86 3.07 25.9 2.93 26.3C2.79 26.71 2.47 27.66 0.88 32.33C0.55 33.32 0.21 34.32 0.13 34.55C0.05 34.79 -0.01 34.98 0 34.99C0 34.99 2.14 34.32 4.75 33.49L9.5 31.98L9.68 32.08C9.99 32.25 10.66 32.57 11.05 32.73C13.18 33.64 15.47 34.1 17.81 34.1C22.52 34.1 26.97 32.21 30.24 28.82C32.71 26.26 34.31 23.01 34.82 19.51C35.05 17.96 35.06 16.42 34.86 14.86C34.44 11.66 33.13 8.66 31.05 6.17C30.68 5.73 30.43 5.46 29.94 4.98C29.09 4.14 28.31 3.5 27.32 2.85C24.99 1.3 22.33 0.36 19.51 0.08C18.92 0.02 17.76 -0.02 17.28 0ZM18.3 2.86C18.79 2.88 19.23 2.92 19.63 2.97C23.47 3.46 26.93 5.47 29.27 8.56C29.52 8.89 29.96 9.54 30.16 9.89C31.23 11.71 31.87 13.69 32.06 15.75C32.14 16.6 32.13 17.59 32.05 18.44C31.78 21.24 30.65 23.92 28.83 26.09C26.57 28.79 23.45 30.55 19.99 31.08C19.24 31.19 18.65 31.24 17.81 31.24C17.13 31.24 16.82 31.22 16.24 31.16C14.11 30.93 12.08 30.23 10.22 29.08L9.93 28.9L7.19 29.77C5.69 30.25 4.45 30.63 4.45 30.63C4.44 30.63 4.6 30.15 5.72 26.86L6.22 25.37L6.16 25.29C4.78 23.37 3.91 21.16 3.61 18.85C3.53 18.19 3.51 17.94 3.51 17.04C3.51 16.14 3.52 15.93 3.61 15.25C4.29 9.88 8.05 5.33 13.25 3.59C14.53 3.16 15.88 2.92 17.25 2.86C17.76 2.84 17.82 2.84 18.3 2.86Z" fill="#000000" fill-opacity="1.000000" fill-rule="nonzero"/>
	<path id="path" d="M16.21 0.07C13.35 0.33 10.64 1.29 8.24 2.88C6.37 4.13 4.76 5.72 3.51 7.58C2.8 8.63 2.21 9.77 1.75 10.94C0.66 13.76 0.34 16.88 0.85 19.89C1.19 21.88 1.89 23.81 2.9 25.54C2.97 25.67 3.04 25.79 3.06 25.82C3.08 25.86 3.07 25.9 2.93 26.3C2.79 26.71 2.47 27.66 0.88 32.33C0.55 33.32 0.21 34.32 0.13 34.55C0.05 34.79 -0.01 34.98 0 34.99C0 34.99 2.14 34.32 4.75 33.49L9.5 31.98L9.68 32.08C9.99 32.25 10.66 32.57 11.05 32.73C13.18 33.64 15.47 34.1 17.81 34.1C22.52 34.1 26.97 32.21 30.24 28.82C32.71 26.26 34.31 23.01 34.82 19.51C35.05 17.96 35.06 16.42 34.86 14.86C34.44 11.66 33.13 8.66 31.05 6.17C30.68 5.73 30.43 5.46 29.94 4.98C29.09 4.14 28.31 3.5 27.32 2.85C24.99 1.3 22.33 0.36 19.51 0.08C18.92 0.02 17.76 -0.02 17.28 0C16.95 0.01 16.48 0.04 16.21 0.07ZM19.63 2.97C23.47 3.46 26.93 5.47 29.27 8.56C29.52 8.89 29.96 9.54 30.16 9.89C31.23 11.71 31.87 13.69 32.06 15.75C32.14 16.6 32.13 17.59 32.05 18.44C31.78 21.24 30.65 23.92 28.83 26.09C26.57 28.79 23.45 30.55 19.99 31.08C19.24 31.19 18.65 31.24 17.81 31.24C17.13 31.24 16.82 31.22 16.24 31.16C14.11 30.93 12.08 30.23 10.22 29.08L9.93 28.9L7.19 29.77C5.69 30.25 4.45 30.63 4.45 30.63C4.44 30.63 4.6 30.15 5.72 26.86L6.22 25.37L6.16 25.29C4.78 23.37 3.91 21.16 3.61 18.85C3.53 18.19 3.51 17.94 3.51 17.04C3.51 16.14 3.52 15.93 3.61 15.25C4.29 9.88 8.05 5.33 13.25 3.59C14.53 3.16 15.88 2.92 17.25 2.86C17.76 2.84 17.82 2.84 18.3 2.86C18.79 2.88 19.23 2.92 19.63 2.97Z" stroke="#000000" stroke-opacity="0" stroke-width="0.000000"/>
	<path id="path" d="M11.73 8.74C11.55 8.78 11.34 8.87 11.18 8.97C11 9.09 10.55 9.53 10.33 9.8C9.74 10.51 9.42 11.25 9.27 12.2C9.22 12.54 9.21 13.3 9.26 13.62C9.33 14.07 9.46 14.57 9.61 14.99C9.86 15.7 10.26 16.49 10.69 17.12C10.77 17.24 10.94 17.5 11.06 17.69C12.5 19.96 14.31 21.89 16.18 23.14C16.94 23.65 17.54 23.97 18.54 24.39C20.15 25.07 21.31 25.46 22 25.56C22.24 25.6 22.6 25.6 22.79 25.56C22.92 25.54 23.05 25.52 23.47 25.46C24.18 25.36 25.23 24.81 25.84 24.23C26.18 23.9 26.32 23.68 26.47 23.21C26.66 22.64 26.77 22 26.73 21.66C26.71 21.49 26.69 21.43 26.59 21.35C26.48 21.25 26.45 21.23 25.49 20.72C23.13 19.46 22.73 19.27 22.44 19.27C22.22 19.27 22.1 19.36 21.85 19.67C21.66 19.92 21.27 20.36 20.82 20.86C20.45 21.26 20.35 21.36 20.23 21.41C20.15 21.46 19.95 21.47 19.82 21.43C19.69 21.4 18.68 20.9 18.34 20.71C16.48 19.65 15.05 18.19 13.88 16.15C13.69 15.82 13.65 15.72 13.65 15.56C13.65 15.38 13.7 15.3 14.02 14.97C14.34 14.65 14.68 14.27 14.81 14.1C14.91 13.98 15.13 13.58 15.18 13.45C15.2 13.41 15.21 13.32 15.21 13.23C15.21 13.06 15.21 13.06 14.99 12.49C14.91 12.31 14.63 11.54 14.35 10.79C14.03 9.92 13.81 9.36 13.75 9.25C13.64 9.03 13.52 8.9 13.38 8.83C13.27 8.78 13.26 8.78 13.01 8.77C12.86 8.77 12.63 8.75 12.49 8.74C12.18 8.71 11.88 8.71 11.73 8.74Z" fill="#000000" fill-opacity="1.000000" fill-rule="nonzero"/>
	<path id="path" d="M11.18 8.97C11 9.09 10.55 9.53 10.33 9.8C9.74 10.51 9.42 11.25 9.27 12.2C9.22 12.54 9.21 13.3 9.26 13.62C9.33 14.07 9.46 14.57 9.61 14.99C9.86 15.7 10.26 16.49 10.69 17.12C10.77 17.24 10.94 17.5 11.06 17.69C12.5 19.96 14.31 21.89 16.18 23.14C16.94 23.65 17.54 23.97 18.54 24.39C20.15 25.07 21.31 25.46 22 25.56C22.24 25.6 22.6 25.6 22.79 25.56C22.92 25.54 23.05 25.52 23.47 25.46C24.18 25.36 25.23 24.81 25.84 24.23C26.18 23.9 26.32 23.68 26.47 23.21C26.66 22.64 26.77 22 26.73 21.66C26.71 21.49 26.69 21.43 26.59 21.35C26.48 21.25 26.45 21.23 25.49 20.72C23.13 19.46 22.73 19.27 22.44 19.27C22.22 19.27 22.1 19.36 21.85 19.67C21.66 19.92 21.27 20.36 20.82 20.86C20.45 21.26 20.35 21.36 20.23 21.41C20.15 21.46 19.95 21.47 19.82 21.43C19.69 21.4 18.68 20.9 18.34 20.71C16.48 19.65 15.05 18.19 13.88 16.15C13.69 15.82 13.65 15.72 13.65 15.56C13.65 15.38 13.7 15.3 14.02 14.97C14.34 14.65 14.68 14.27 14.81 14.1C14.91 13.98 15.13 13.58 15.18 13.45C15.2 13.41 15.21 13.32 15.21 13.23C15.21 13.06 15.21 13.06 14.99 12.49C14.91 12.31 14.63 11.54 14.35 10.79C14.03 9.92 13.81 9.36 13.75 9.25C13.64 9.03 13.52 8.9 13.38 8.83C13.27 8.78 13.26 8.78 13.01 8.77C12.86 8.77 12.63 8.75 12.49 8.74C12.18 8.71 11.88 8.71 11.73 8.74C11.55 8.78 11.34 8.87 11.18 8.97Z" stroke="#000000" stroke-opacity="0" stroke-width="0.000000"/>
</svg>
